<?xml version="1.0" standalone="no"?>
<!DOCTYPE svg PUBLIC "-//W3C//DTD SVG 20010904//EN"
 "http://www.w3.org/TR/2001/REC-SVG-20010904/DTD/svg10.dtd">
<svg version="1.0" xmlns="http://www.w3.org/2000/svg"
 width="700.000000pt" height="700.000000pt" viewBox="0 0 700.000000 700.000000"
 preserveAspectRatio="xMidYMid meet">
<metadata>
Created by potrace 1.14, written by Peter Selinger 2001-2017
</metadata>
<g transform="translate(0.000000,700.000000) scale(0.100000,-0.100000)"
fill="#000000" stroke="none">
<path d="M1768 6306 c-91 -25 -168 -99 -198 -191 -16 -47 -20 -183 -8 -240 18
-86 63 -149 133 -191 58 -34 96 -43 177 -45 42 -1 68 -6 69 -13 1 -6 2 -157 4
-336 1 -179 5 -347 9 -375 4 -27 9 -61 11 -75 31 -212 128 -470 252 -663 176
-276 410 -458 721 -561 127 -43 172 -73 172 -116 0 -42 -45 -73 -157 -110
-442 -144 -746 -457 -915 -940 -16 -47 -32 -96 -34 -110 -3 -14 -10 -43 -16
-65 -5 -22 -12 -50 -14 -62 -2 -13 -6 -35 -9 -50 -14 -74 -19 -204 -19 -489
l-1 -312 -69 -1 c-86 -1 -129 -13 -187 -50 -94 -59 -130 -136 -133 -281 -4
-159 46 -258 160 -315 l59 -30 1710 -3 c1893 -2 1756 -7 1847 63 28 20 57 57
77 95 31 58 34 70 35 164 3 129 -10 175 -70 251 -17 22 -56 54 -85 70 -45 24
-69 30 -141 33 -55 3 -88 9 -89 16 -1 6 -2 162 -4 346 -1 184 -5 349 -8 365
-3 17 -13 71 -22 120 -56 324 -213 633 -435 856 -159 159 -307 250 -532 325
-122 40 -168 71 -168 113 0 49 35 72 192 124 110 37 145 52 233 102 266 149
489 418 618 745 24 60 71 213 82 264 2 11 6 30 8 41 3 11 8 43 11 70 4 28 10
59 13 70 3 11 7 178 7 370 l2 350 69 2 c108 4 169 28 230 89 69 69 92 134 90
259 -2 115 -25 183 -83 242 -23 25 -64 54 -90 66 l-47 22 -1705 2 c-1356 1
-1715 -1 -1752 -11z m3091 -999 c0 -183 -5 -357 -10 -387 -5 -30 -12 -75 -15
-100 -3 -25 -8 -48 -11 -53 -2 -4 -7 -19 -9 -34 -6 -34 -38 -130 -71 -213 -93
-237 -265 -457 -458 -585 -97 -64 -168 -97 -303 -141 -106 -34 -181 -74 -220
-118 -109 -126 -81 -307 62 -402 29 -19 100 -50 157 -69 282 -90 458 -221 625
-466 82 -121 183 -349 209 -473 2 -12 11 -55 21 -96 13 -60 17 -147 21 -442
l5 -368 -96 1 c-66 0 -96 4 -97 12 -1 7 -1 71 0 142 1 209 -13 229 -160 238
-97 7 -155 18 -249 49 -350 113 -623 453 -657 818 -3 30 -6 184 -6 341 -2 314
-1 309 -64 336 -28 11 -38 11 -68 -2 -59 -24 -62 -45 -62 -350 -1 -305 -4
-358 -34 -470 -68 -262 -248 -487 -490 -613 -81 -43 -206 -86 -279 -97 -25 -3
-54 -8 -65 -10 -11 -2 -46 -4 -77 -4 -49 -1 -63 -5 -90 -30 l-33 -29 -2 -139
c-1 -76 -2 -150 -2 -165 l-1 -27 -95 0 -96 0 2 332 c1 223 5 360 14 417 66
413 268 760 555 951 99 66 172 100 308 144 142 46 217 98 256 177 33 68 39
131 17 196 -37 108 -106 163 -275 217 -279 90 -463 230 -626 474 -81 121 -176
331 -195 431 -2 8 -8 35 -15 60 -7 25 -14 56 -16 70 -1 14 -7 48 -13 75 -5 28
-10 204 -11 392 l-1 341 1361 0 1360 0 -1 -331z"/>
<path d="M2395 5340 c-11 -4 -29 -18 -40 -30 -18 -20 -20 -37 -21 -154 -3
-369 120 -705 342 -932 119 -122 227 -188 399 -244 175 -56 282 -128 351 -236
31 -49 35 -52 71 -49 21 1 41 3 45 4 3 0 17 20 31 44 60 101 180 182 352 238
171 54 272 114 387 230 87 87 171 210 227 332 42 89 85 218 95 281 4 21 8 41
10 45 10 17 19 141 20 273 l1 148 -28 27 -27 28 -1098 1 c-603 1 -1106 -2
-1117 -6z"/>
</g>
</svg>
